<?xml version="1.0" encoding="UTF-8"?>
<svg width="40px" height="40px" viewBox="0 0 40 40" version="1.1" xmlns="http://www.w3.org/2000/svg" xmlns:xlink="http://www.w3.org/1999/xlink">
    <!-- Generator: Sketch 48.2 (47327) - http://www.bohemiancoding.com/sketch -->
    <title>Close BTN</title>
    <desc>Created with Sketch.</desc>
    <defs></defs>
    <g id="xc_UI_Kit_Page2" stroke="none" stroke-width="1" fill="none" fill-rule="evenodd" transform="translate(-666.000000, -5117.000000)">
        <g id="Close-BTN" transform="translate(666.000000, 5117.000000)">
            <circle id="Oval" fill="#3F3F3F" cx="20" cy="20" r="20"></circle>
            <path d="M23.9166667,16.0833333 C23.5833333,15.75 23.0833333,15.75 22.75,16.0833333 L20,18.8333333 L17.25,16.0833333 C16.9166667,15.75 16.4166667,15.75 16.0833333,16.0833333 C15.75,16.4166667 15.75,16.9166667 16.0833333,17.25 L18.8333333,20 L16.0833333,22.75 C15.75,23.0833333 15.75,23.5833333 16.0833333,23.9166667 C16.25,24.0833333 16.4166667,24.1666667 16.6666667,24.1666667 C16.9166667,24.1666667 17.0833333,24.0833333 17.25,23.9166667 L20,21.1666667 L22.75,23.9166667 C22.9166667,24.0833333 23.1666667,24.1666667 23.3333333,24.1666667 C23.5,24.1666667 23.75,24.0833333 23.9166667,23.9166667 C24.25,23.5833333 24.25,23.0833333 23.9166667,22.75 L21.1666667,20 L23.9166667,17.25 C24.25,16.9166667 24.25,16.4166667 23.9166667,16.0833333 Z" id="Shape" fill="#FFFFFF" fill-rule="nonzero"></path>
        </g>
    </g>
</svg>