<?xml version="1.0" encoding="UTF-8"?>
<svg width="18px" height="18px" viewBox="0 0 18 18" version="1.1" xmlns="http://www.w3.org/2000/svg" xmlns:xlink="http://www.w3.org/1999/xlink">
    <!-- Generator: Sketch 48.2 (47327) - http://www.bohemiancoding.com/sketch -->
    <title>Cross</title>
    <desc>Created with Sketch.</desc>
    <defs></defs>
    <g id="xc-Recipe-Landing" stroke="none" stroke-width="1" fill="none" fill-rule="evenodd" transform="translate(-515.000000, -157.000000)">
        <g id="Nav/UpdatedNavV4" transform="translate(0.000000, 137.000000)" fill="#444444" fill-rule="nonzero">
            <path d="M526.808517,20 L521.319148,20 C520.859572,20 520.48937,20.3702018 520.48937,20.8297778 L520.48937,25.4893698 L515.829778,25.4893698 C515.370202,25.4893698 515,25.8595716 515,26.3191475 L515,31.6808525 C515,32.1404284 515.370202,32.5106302 515.829778,32.5106302 L520.48937,32.5106302 L520.48937,37.1702222 C520.48937,37.6297982 520.859572,38 521.319148,38 L526.808517,38 C527.268093,38 527.638295,37.6297982 527.638295,37.1702222 L527.638295,32.5106302 L532.170222,32.5106302 C532.629798,32.5106302 533,32.1404284 533,31.6808525 L533,26.3191475 C533,25.8595716 532.629798,25.4893698 532.170222,25.4893698 L527.638295,25.4893698 L527.638295,20.8297778 C527.638295,20.3702018 527.268093,20 526.808517,20 Z M531.340444,27.1489253 L531.340444,30.8510309 L526.808517,30.8510309 C526.348941,30.8510309 525.97874,31.2212327 525.97874,31.6808087 L525.97874,36.3404007 L522.148969,36.3404007 L522.148969,31.6808525 C522.148969,31.2212765 521.778767,30.8510747 521.319191,30.8510747 L516.659556,30.8510747 L516.659556,27.1489691 L521.319148,27.1489691 C521.778723,27.1489691 522.148925,26.7787673 522.148925,26.3191913 L522.148925,21.6595555 L525.978696,21.6595555 L525.978696,26.3191475 C525.978696,26.7787235 526.348898,27.1489253 526.808474,27.1489253 L531.340444,27.1489253 Z" id="Cross"></path>
        </g>
    </g>
</svg>