<?xml version="1.0" encoding="UTF-8"?>
<svg width="24px" height="24px" viewBox="0 0 24 24" version="1.1" xmlns="http://www.w3.org/2000/svg" xmlns:xlink="http://www.w3.org/1999/xlink">
    <!-- Generator: Sketch 48.2 (47327) - http://www.bohemiancoding.com/sketch -->
    <title>Login Signup</title>
    <desc>Created with Sketch.</desc>
    <defs></defs>
    <g id="xc_UI_Kit_Page2" stroke="none" stroke-width="1" fill="none" fill-rule="evenodd" transform="translate(-71.000000, -5137.000000)">
        <g id="Login-Signup" transform="translate(72.000000, 5138.000000)" stroke="#444444" stroke-width="2">
            <path d="M18,19.486 L18,18.741 C18,17.664 17.423,16.67 16.488,16.136 L13.269,14.294" id="Shape"></path>
            <path d="M8.727,14.292 L5.512,16.136 C4.577,16.67 4,17.664 4,18.741 L4,19.486" id="Shape"></path>
            <path d="M11,15 C8.791,15 7,13.209 7,11 L7,9 C7,6.791 8.791,5 11,5 C13.209,5 15,6.791 15,9 L15,11 C15,13.209 13.209,15 11,15 Z" id="Shape" stroke-linecap="square"></path>
            <circle id="Oval" stroke-linecap="square" cx="11" cy="11" r="11"></circle>
        </g>
    </g>
</svg>