<?xml version="1.0" encoding="UTF-8" standalone="no"?>
<svg
   xmlns="http://www.w3.org/2000/svg"
   viewBox="0 0 10 10"
   width="24px"
   height="24px"
   version="1.1">
  <g transform="translate(-1351.0424,-43.084745)">
    <path
       d="m 1360.7424,43.384745 c -0.4,-0.4 -1,-0.4 -1.4,0 l -3.3,3.3 -3.3,-3.3 c -0.4,-0.4 -1,-0.4 -1.4,0 -0.4,0.4 -0.4,1 0,1.4 l 3.3,3.3 -3.3,3.3 c -0.4,0.4 -0.4,1 0,1.4 0.2,0.2 0.4,0.3 0.7,0.3 0.3,0 0.5,-0.1 0.7,-0.3 l 3.3,-3.3 3.3,3.3 c 0.2,0.2 0.5,0.3 0.7,0.3 0.2,0 0.5,-0.1 0.7,-0.3 0.4,-0.4 0.4,-1 0,-1.4 l -3.3,-3.3 3.3,-3.3 c 0.4,-0.4 0.4,-1 0,-1.4 z" />
  </g>
</svg>
